<svg xmlns="http://www.w3.org/2000/svg" width="1000" height="1000" viewBox="0 0 78 50">

<g transform="translate(0 20)" stroke="#fff" stroke-width=".5" font-family="Verdana" font-size="3">
	<g id="escape" class="key">
		<path d="M0,0h6v6h-6z"/>
		<text transform="translate(.5 3.5)" fill="#f00" stroke="none">esc</text>
	</g>
	<!-- <g id="f1" class="key">
		<path d="M6,0h6v6h-6z"/>
		<text fill="#f00" stroke="none">F1</text>
	</g>
	<g id="f2" class="key">
		<path d="M12,0h6v6h-6z"/>
		<text fill="#f00" stroke="none">F2</text>
	</g>
	<g id="f3" class="key">
		<path d="M18,0h6v6h-6z"/>
		<text fill="#f00" stroke="none">F3</text>
	</g>
	<g id="f4" class="key">
		<path d="M24,0h6v6h-6z"/>
		<text fill="#f00" stroke="none">F4</text>
	</g>
	<g id="f5" class="key">
		<path d="M30,0h6v6h-6z"/>
		<text fill="#f00" stroke="none">F5</text>
	</g>
	<g id="f6" class="key">
		<path d="M36,0h6v6h-6z"/>
		<text fill="#f00" stroke="none">F6</text>
	</g>
	<g id="f7" class="key">
		<path d="M42,0h6v6h-6z"/>
		<text fill="#f00" stroke="none">F7</text>
	</g>
	<g id="f8" class="key">
		<path d="M48,0h6v6h-6z"/>
		<text fill="#f00" stroke="none">F8</text>
	</g>
	<g id="f9" class="key">
		<path d="M54,0h6v6h-6z"/>
		<text fill="#f00" stroke="none">F9</text>
	</g>
	<g id="f10" class="key">
		<path d="M60,0h6v6h-6z"/>
		<text fill="#f00" stroke="none">F10</text>
	</g>
	<g id="f11" class="key">
		<path d="M66,0h6v6h-6z"/>
		<text fill="#f00" stroke="none">F11</text>
	</g>
	<g id="f12" class="key">
		<path d="M72,0h6v6h-6z"/>
		<text fill="#f00" stroke="none">F12</text>
	</g> -->
</g>
<!-- Still working on ... -->
<!-- <g transform="translate(20 20)">
	<path id="backTick" d="M0,0h6v6h-6z"/>
	<path id="n1" d="M0,0h6v6h-6z"/>
	<path id="n2" d="M6,0h6v6h-6z"/>
	<path id="n3" d="M12,0h6v6h-6z"/>
	<path id="n4" d="M18,0h6v6h-6z"/>
	<path id="n5" d="M24,0h6v6h-6z"/>
	<path id="n6" d="M30,0h6v6h-6z"/>
	<path id="n7" d="M36,0h6v6h-6z"/>
	<path id="n8" d="M42,0h6v6h-6z"/>
	<path id="n9" d="M48,0h6v6h-6z"/>
	<path id="n0" d="M54,0h6v6h-6z"/>
	<path id="hyphen" d="M60,0h6v6h-6z"/>
	<path id="equals" d="M66,0h6v6h-6z"/>
	<path id="backspace" d="M72,0h6v6h-6z"/>
</g> -->
</svg>
